# xmcd
#
# Track frame offsets: 
#        150
#        17075
#        33535
#        49225
#        67262
#        82597
#        98207
#        116110
#        132460
#        146550
#
# Disc length: 2147 seconds
#
# Revision: 0
# Processed by: cddbd v1.5.1PL2 Copyright (c) Steve Scherf et al.
# Submitted via: ExactAudioCopy v0.95b4
#
DISCID=8d08610a
DTITLE=พิมพ์  ญาดา - ถูกใจไหมจ๊อด
DYEAR=1900
DGENRE=Country
TTITLE0=ถูกใจไหมจ๊อด
TTITLE1=ไม่แต่งแช่งเป็นวันนก
TTITLE2=ผู้ชายหมกเม็ด
TTITLE3=วันที่เก้าเศร้าใจ
TTITLE4=รักเกิดที่คาราโอเกะ
TTITLE5=คนรวยไร้รัก
TTITLE6=หล่อเหมือนปู่เจ้าชู้เหมือนพ่อ
TTITLE7=ข้าวคอยฝนคนคอยแฟน
TTITLE8=หล่อไม่เจอรุ่น
TTITLE9=คอยรักที่ปากน้ำ
EXTD=
EXTT0=
EXTT1=
EXTT2=
EXTT3=
EXTT4=
EXTT5=
EXTT6=
EXTT7=
EXTT8=
EXTT9=
PLAYORDER=
